<svg width="92" height="48" viewBox="0 0 92 48" fill="none" xmlns="http://www.w3.org/2000/svg">
<path d="M15 17.1818V22.8636H0.625V17.1818H15ZM3.40909 11.9545H11.25V31.983C11.25 32.286 11.3021 32.5417 11.4062 32.75C11.5104 32.9489 11.6714 33.1004 11.8892 33.2045C12.107 33.2992 12.3864 33.3466 12.7273 33.3466C12.964 33.3466 13.2386 33.3182 13.5511 33.2614C13.8731 33.2045 14.1098 33.1572 14.2614 33.1193L15.3977 38.6307C15.0473 38.7348 14.5455 38.8627 13.892 39.0142C13.2481 39.1657 12.4811 39.2652 11.5909 39.3125C9.79167 39.4072 8.28125 39.2225 7.05966 38.7585C5.83807 38.285 4.91951 37.5417 4.30398 36.5284C3.68845 35.5152 3.39015 34.2462 3.40909 32.7216V11.9545ZM28.4766 39.3977C26.1091 39.3977 24.0826 38.929 22.397 37.9915C20.7114 37.0445 19.4188 35.7282 18.5192 34.0426C17.6196 32.3475 17.1697 30.3826 17.1697 28.1477C17.1697 25.9129 17.6196 23.9527 18.5192 22.267C19.4188 20.572 20.7114 19.2557 22.397 18.3182C24.0826 17.3712 26.1091 16.8977 28.4766 16.8977C30.844 16.8977 32.8705 17.3712 34.5561 18.3182C36.2417 19.2557 37.5343 20.572 38.4339 22.267C39.3336 23.9527 39.7834 25.9129 39.7834 28.1477C39.7834 30.3826 39.3336 32.3475 38.4339 34.0426C37.5343 35.7282 36.2417 37.0445 34.5561 37.9915C32.8705 38.929 30.844 39.3977 28.4766 39.3977ZM28.5334 33.6023C29.1963 33.6023 29.7692 33.3797 30.2521 32.9347C30.7351 32.4896 31.1091 31.8551 31.3743 31.0312C31.6394 30.2074 31.772 29.2273 31.772 28.0909C31.772 26.9451 31.6394 25.965 31.3743 25.1506C31.1091 24.3267 30.7351 23.6922 30.2521 23.2472C29.7692 22.8021 29.1963 22.5795 28.5334 22.5795C27.8326 22.5795 27.2313 22.8021 26.7294 23.2472C26.2275 23.6922 25.844 24.3267 25.5788 25.1506C25.3137 25.965 25.1811 26.9451 25.1811 28.0909C25.1811 29.2273 25.3137 30.2074 25.5788 31.0312C25.844 31.8551 26.2275 32.4896 26.7294 32.9347C27.2313 33.3797 27.8326 33.6023 28.5334 33.6023Z" fill="#4EA8DE"/>
<path d="M50.8629 39.2841C49.3099 39.2841 47.88 38.8769 46.5732 38.0625C45.2758 37.2481 44.2341 36.0123 43.4482 34.3551C42.6716 32.6979 42.2834 30.6098 42.2834 28.0909C42.2834 25.4583 42.6906 23.3182 43.505 21.6705C44.3288 20.0227 45.3894 18.8153 46.6868 18.0483C47.9936 17.2812 49.3667 16.8977 50.8061 16.8977C51.8857 16.8977 52.8326 17.0871 53.647 17.4659C54.4614 17.8352 55.1432 18.3324 55.6925 18.9574C56.2417 19.5729 56.6584 20.25 56.9425 20.9886H57.0561V9.90909H64.897V39H57.1129V35.4205H56.9425C56.6394 36.1591 56.2038 36.822 55.6357 37.4091C55.0769 37.9867 54.3951 38.446 53.5902 38.7869C52.7947 39.1184 51.8857 39.2841 50.8629 39.2841ZM53.7607 33.2614C54.4804 33.2614 55.0959 33.053 55.6072 32.6364C56.1281 32.2102 56.5258 31.6136 56.8004 30.8466C57.0845 30.0701 57.2266 29.1515 57.2266 28.0909C57.2266 27.0114 57.0845 26.0881 56.8004 25.321C56.5258 24.5445 56.1281 23.9527 55.6072 23.5455C55.0959 23.1288 54.4804 22.9205 53.7607 22.9205C53.041 22.9205 52.4254 23.1288 51.9141 23.5455C51.4122 23.9527 51.0239 24.5445 50.7493 25.321C50.4841 26.0881 50.3516 27.0114 50.3516 28.0909C50.3516 29.1705 50.4841 30.0985 50.7493 30.875C51.0239 31.642 51.4122 32.2339 51.9141 32.6506C52.4254 33.0578 53.041 33.2614 53.7607 33.2614ZM79.2578 39.3977C76.8904 39.3977 74.8639 38.929 73.1783 37.9915C71.4927 37.0445 70.2 35.7282 69.3004 34.0426C68.4008 32.3475 67.951 30.3826 67.951 28.1477C67.951 25.9129 68.4008 23.9527 69.3004 22.267C70.2 20.572 71.4927 19.2557 73.1783 18.3182C74.8639 17.3712 76.8904 16.8977 79.2578 16.8977C81.6252 16.8977 83.6518 17.3712 85.3374 18.3182C87.023 19.2557 88.3156 20.572 89.2152 22.267C90.1148 23.9527 90.5646 25.9129 90.5646 28.1477C90.5646 30.3826 90.1148 32.3475 89.2152 34.0426C88.3156 35.7282 87.023 37.0445 85.3374 37.9915C83.6518 38.929 81.6252 39.3977 79.2578 39.3977ZM79.3146 33.6023C79.9775 33.6023 80.5504 33.3797 81.0334 32.9347C81.5163 32.4896 81.8904 31.8551 82.1555 31.0312C82.4207 30.2074 82.5533 29.2273 82.5533 28.0909C82.5533 26.9451 82.4207 25.965 82.1555 25.1506C81.8904 24.3267 81.5163 23.6922 81.0334 23.2472C80.5504 22.8021 79.9775 22.5795 79.3146 22.5795C78.6139 22.5795 78.0125 22.8021 77.5107 23.2472C77.0088 23.6922 76.6252 24.3267 76.3601 25.1506C76.0949 25.965 75.9624 26.9451 75.9624 28.0909C75.9624 29.2273 76.0949 30.2074 76.3601 31.0312C76.6252 31.8551 77.0088 32.4896 77.5107 32.9347C78.0125 33.3797 78.6139 33.6023 79.3146 33.6023Z" fill="#5E60CE"/>
</svg>
